<?xml version="1.0" standalone="no"?>
<!DOCTYPE svg PUBLIC "-//W3C//DTD SVG 20010904//EN"
 "http://www.w3.org/TR/2001/REC-SVG-20010904/DTD/svg10.dtd">
<svg version="1.0" xmlns="http://www.w3.org/2000/svg"
 width="139.000000pt" height="139.000000pt" viewBox="0 0 139.000000 139.000000"
 preserveAspectRatio="xMidYMid meet">
<metadata>
Created by potrace 1.14, written by Peter Selinger 2001-2017
</metadata>
<g transform="translate(0.000000,139.000000) scale(0.100000,-0.100000)"
fill="#000000" stroke="none">
<path d="M20 1358 c-20 -21 -20 -32 -20 -658 0 -626 0 -637 20 -658 20 -22 26
-22 276 -22 292 0 313 5 314 69 0 19 -50 75 -205 231 -233 235 -249 259 -249
375 -1 126 11 143 246 381 221 224 230 237 188 282 -20 22 -26 22 -285 22
-259 0 -265 0 -285 -22z"/>
<path d="M627 1103 c-181 -180 -286 -292 -298 -318 -24 -51 -24 -119 0 -170
12 -26 117 -138 298 -317 l279 -278 205 0 c196 0 206 1 228 21 46 43 32 63
-249 344 -266 266 -287 293 -268 345 5 14 128 145 274 291 254 255 265 268
261 299 -9 57 -21 59 -247 60 l-204 0 -279 -277z"/>
</g>
</svg>
